<?xml version="1.0" standalone="no"?><!DOCTYPE svg PUBLIC "-//W3C//DTD SVG 1.1//EN" "http://www.w3.org/Graphics/SVG/1.1/DTD/svg11.dtd"><svg t="1713615142468" class="icon" viewBox="0 0 1194 1024" version="1.1" xmlns="http://www.w3.org/2000/svg" p-id="11605" width="37.3125" height="32" xmlns:xlink="http://www.w3.org/1999/xlink"><path d="M597.333333 154.154667c328.533333-299.946667 597.333333-119.978667 597.333334 179.968 0 266.624-259.584 462.144-506.048 628.693333l-16.789334 11.306667-25.045333 16.810666-16.597333 11.093334L597.333333 1024a5291.050667 5291.050667 0 0 1-136.149333-93.824l-17.173333-12.373333c-93.824-67.989333-186.24-142.208-262.250667-221.482667l195.904-191.658667 182.4 179.989334a62.933333 62.933333 0 0 0 87.36 0.64l272.661333-261.44a59.648 59.648 0 0 0 0.874667-85.674667 62.933333 62.933333 0 0 0-87.594667-0.853333l-228.693333 219.242666-182.826667-180.416a62.933333 62.933333 0 0 0-87.786666-0.192L102.229333 602.730667C39.466667 517.610667 0 427.669333 0 334.122667 0 64.170667 268.8-145.792 597.333333 154.154667z" p-id="11606" fill="#2e8b86"></path></svg>