<?xml version="1.0" standalone="no"?><!DOCTYPE svg PUBLIC "-//W3C//DTD SVG 1.1//EN" "http://www.w3.org/Graphics/SVG/1.1/DTD/svg11.dtd"><svg t="1713699124999" class="icon" viewBox="0 0 1024 1024" version="1.1" xmlns="http://www.w3.org/2000/svg" p-id="7995" xmlns:xlink="http://www.w3.org/1999/xlink" width="16" height="16"><path d="M512.78 1.42C231 1.42 2.55 229.86 2.55 511.65S231 1021.88 512.78 1021.88 1023 793.44 1023 511.65 794.57 1.42 512.78 1.42z m-53.42 836.21c-12.3 28.26-36.59 45.72-57.66 43.11l15.69-36a9.12 9.12 0 1 0-16.73-7.28l-15.69 36c-16.27-13.63-20-43.32-7.74-71.57 14.08-32.34 43.88-50.56 66.56-40.68s29.65 44.08 15.57 76.42z m135.08-314L513 743a56.67 56.67 0 0 1-45.93 36.37c-3-11.86-9.7-21.23-19.68-25.58s-21.79-2.82-32.64 3.33a56.63 56.63 0 0 1-7.75-53.46l81.4-219.4a56.69 56.69 0 0 1 72.67-33.34 56.7 56.7 0 0 1 33.37 72.66z m8.09-41.53a61.13 61.13 0 0 1-0.69 9.13 60.32 60.32 0 0 0-116.66-15.69l-3.28 8.86c0-0.77-0.06-1.53-0.06-2.3V232.24a60.35 60.35 0 0 1 120.69 0z" fill="#1296db" p-id="7996"></path></svg>