<?xml version="1.0" standalone="no"?><!DOCTYPE svg PUBLIC "-//W3C//DTD SVG 1.1//EN" "http://www.w3.org/Graphics/SVG/1.1/DTD/svg11.dtd"><svg t="1713617396964" class="icon" viewBox="0 0 1024 1024" version="1.1" xmlns="http://www.w3.org/2000/svg" p-id="12771" width="16" height="16" xmlns:xlink="http://www.w3.org/1999/xlink"><path d="M890.751654 652.62331l-115.563795-217.596386a36.570821 36.570821 0 0 0-32.365177-19.565389H281.298918a36.570821 36.570821 0 0 0-32.365177 19.565389l-115.563795 217.596386a36.570821 36.570821 0 0 0 32.365177 53.759108h692.651354a36.570821 36.570821 0 0 0 32.365177-53.759108zM583.73961 38.233514a86.307138 86.307138 0 0 0-143.357619 0l-152.500325 287.080946a36.570821 36.570821 0 0 0 32.365177 53.576253h383.993623a36.570821 36.570821 0 0 0 32.365177-53.576253zM80.342255 1024h863.43709c59.610439 0 98.375509-54.856232 71.678809-100.021196l-85.941429-161.64303a36.570821 36.570821 0 0 0-32.182323-19.382535H126.787198a36.570821 36.570821 0 0 0-32.182322 19.382535l-85.94143 161.64303C-18.216108 969.143768 20.731817 1024 80.342255 1024z" fill="#2e8b86" p-id="12772"></path></svg>