<?xml version="1.0" standalone="no"?><!DOCTYPE svg PUBLIC "-//W3C//DTD SVG 1.1//EN" "http://www.w3.org/Graphics/SVG/1.1/DTD/svg11.dtd"><svg t="1714389205231" class="icon" viewBox="0 0 1024 1024" version="1.1" xmlns="http://www.w3.org/2000/svg" p-id="5018" xmlns:xlink="http://www.w3.org/1999/xlink" width="48" height="48"><path d="M352 64H192a128 128 0 0 0-128 128v160a128 128 0 0 0 128 128h256a32 32 0 0 0 32-32V192a128 128 0 0 0-128-128zM192 544a128 128 0 0 0-128 128v160a128 128 0 0 0 128 128h160a128 128 0 0 0 128-128V576a32 32 0 0 0-32-32zM832 64H672a128 128 0 0 0-128 128v256a32 32 0 0 0 32 32h256a128 128 0 0 0 128-128V192a128 128 0 0 0-128-128zM832 544H576a32 32 0 0 0-32 32v256a128 128 0 0 0 128 128h160a128 128 0 0 0 128-128V672a128 128 0 0 0-128-128z" fill="#2e8b86" p-id="5019"></path></svg>