<?xml version="1.0" standalone="no"?><!DOCTYPE svg PUBLIC "-//W3C//DTD SVG 1.1//EN" "http://www.w3.org/Graphics/SVG/1.1/DTD/svg11.dtd"><svg t="1714121513351" class="icon" viewBox="0 0 1024 1024" version="1.1" xmlns="http://www.w3.org/2000/svg" p-id="3622" xmlns:xlink="http://www.w3.org/1999/xlink" width="32" height="32"><path d="M804.584727 0A219.415273 219.415273 0 0 1 1024 219.415273v585.169454A219.415273 219.415273 0 0 1 804.584727 1024H219.415273A219.415273 219.415273 0 0 1 0 804.584727V219.415273A219.415273 219.415273 0 0 1 219.415273 0z m-6.190545 58.507636H225.605818a167.098182 167.098182 0 0 0-167.098182 167.098182v572.788364a167.098182 167.098182 0 0 0 167.098182 167.098182h572.788364a167.098182 167.098182 0 0 0 167.098182-167.098182V225.605818a167.098182 167.098182 0 0 0-167.098182-167.098182z" fill="#1296db" p-id="3623"></path><path d="M740.072727 748.218182a24.436364 24.436364 0 1 1 0 48.872727H283.927273a24.436364 24.436364 0 1 1 0-48.872727h456.145454z m0-109.940364a24.436364 24.436364 0 1 1 0 48.872727H283.927273a24.436364 24.436364 0 1 1 0-48.872727h456.145454z m-156.904727-407.086545a28.532364 28.532364 0 0 1 40.168727 3.490909l68.049455 81.128727a28.485818 28.485818 0 0 1-3.537455 40.168727l-241.850182 202.938182a28.485818 28.485818 0 0 1-12.89309 6.144l-114.315637 22.155637a24.436364 24.436364 0 0 1-27.461818-32.768l41.658182-108.683637a28.532364 28.532364 0 0 1 8.285091-11.636363z m-55.482182 110.312727l-150.946909 126.696727-24.017454 62.650182 65.908363-12.753454 150.946909-126.743273-41.890909-49.896727z m71.307637-59.810909l-33.885091 28.392727 41.890909 49.896727 33.838545-28.392727-41.890909-49.896727z" fill="#1296db" p-id="3624"></path></svg>